<svg width="27" height="27" viewBox="0 0 27 27" fill="none" xmlns="http://www.w3.org/2000/svg">
  <path d="M18.7994 11.1254C18.9751 11.3012 18.9751 11.5861 18.7994 11.7618L14.3932 16.168C14.3052 16.2559 14.1902 16.2998 14.075 16.2998C13.6776 16.2998 13.4724 15.816 13.7568 15.5316L18.163 11.1254C18.3387 10.9498 18.6236 10.9498 18.7994 11.1254ZM18.628 14.8124C19.1191 14.8124 19.5186 15.212 19.5186 15.703C19.5186 16.1941 19.1191 16.5936 18.628 16.5936C18.137 16.5936 17.7374 16.1941 17.7374 15.703C17.7374 15.212 18.137 14.8124 18.628 14.8124ZM18.6186 15.703C18.6186 15.7134 18.6374 15.7134 18.6374 15.703C18.6374 15.6927 18.6186 15.6927 18.6186 15.703ZM15.1124 11.2968C15.1124 11.7878 14.7128 12.1874 14.2218 12.1874C13.7307 12.1874 13.3312 11.7878 13.3312 11.2968C13.3312 10.8057 13.7307 10.4062 14.2218 10.4062C14.7128 10.4062 15.1124 10.8057 15.1124 11.2968ZM14.2218 11.2874C14.2093 11.2874 14.2096 11.3062 14.2218 11.3062C14.2341 11.3062 14.2342 11.2874 14.2218 11.2874ZM25.1998 4.61246H10.8843C10.6358 4.61246 10.4343 4.81394 10.4343 5.06245C10.4343 5.31097 10.6358 5.51245 10.8843 5.51245H25.1998C25.6961 5.51245 26.0998 5.91621 26.0998 6.41245V20.5874C26.0998 21.0836 25.6961 21.4874 25.1998 21.4874H8.21245V20.5347C8.21245 20.2861 8.01096 20.0847 7.76245 20.0847C7.51394 20.0847 7.31245 20.2861 7.31245 20.5347V21.4874H1.79999C1.30375 21.4874 0.899994 21.0836 0.899994 20.5874V18.1088C0.899994 17.7761 1.07718 17.4748 1.36254 17.3225C4.41757 15.6917 4.41672 11.3075 1.36248 9.67718C1.07718 9.52496 0.899994 9.22369 0.899994 8.89097V6.41245C0.899994 5.91621 1.30375 5.51245 1.79999 5.51245H7.31245V6.46515C7.31245 6.71366 7.51394 6.91515 7.76245 6.91515C8.01096 6.91515 8.21245 6.71366 8.21245 6.46515V5.06245C8.21245 4.81394 8.01096 4.61246 7.76245 4.61246H1.79999C0.807464 4.61246 0 5.41992 0 6.41245V8.89097C0 9.55669 0.359716 10.1622 0.938694 10.4713C3.3594 11.7633 3.35889 15.2368 0.93875 16.5287C0.359716 16.8376 0 17.4432 0 18.1089V20.5874C0 21.5799 0.807464 22.3873 1.79999 22.3873H25.1998C26.1924 22.3873 26.9998 21.5799 26.9998 20.5874V6.41245C26.9998 5.41992 26.1924 4.61246 25.1998 4.61246ZM8.21245 9.86533C8.21245 9.61682 8.01096 9.41533 7.76245 9.41533C7.51394 9.41533 7.31245 9.61682 7.31245 9.86533V11.6269C7.31245 11.8754 7.51394 12.0769 7.76245 12.0769C8.01096 12.0769 8.21245 11.8754 8.21245 11.6269V9.86533ZM7.76245 14.9229C7.51394 14.9229 7.31245 15.1244 7.31245 15.3729V17.1345C7.31245 17.383 7.51394 17.5845 7.76245 17.5845C8.01096 17.5845 8.21245 17.383 8.21245 17.1345V15.3729C8.21245 15.1244 8.01096 14.9229 7.76245 14.9229Z" fill="#626262"/>
</svg>