<svg width="27" height="27" viewBox="0 0 27 27" fill="none" xmlns="http://www.w3.org/2000/svg">
  <path d="M13.4981 0.613628C13.4477 0.613788 13.3981 0.626339 13.3537 0.650182L2.00142 6.78654C1.90357 6.8416 1.8424 6.94455 1.84082 7.05681V19.9432C1.84063 20.0559 1.90229 20.1597 2.00142 20.2134L13.3537 26.3498C13.3986 26.3739 13.4489 26.3865 13.4999 26.3863C13.5507 26.3849 13.6006 26.3724 13.6461 26.3498L24.9984 20.2134C25.0975 20.1597 25.1592 20.0559 25.159 19.9432V7.05681C25.1572 6.94461 25.0961 6.84177 24.9984 6.78654L13.6461 0.650182C13.6006 0.625763 13.5497 0.613189 13.4981 0.613628ZM13.4999 1.26921L17.0487 3.18742L6.34182 8.97502L2.79304 7.05681L13.4999 1.26921ZM17.6941 3.53619L20.0126 4.78983L9.30633 10.5774C7.75904 9.74138 8.28285 10.0241 6.98722 9.32379L17.6941 3.53619ZM20.658 5.1386L24.2068 7.05681L13.4999 12.8444L9.95113 10.9262L20.658 5.1386ZM2.45446 7.57157L6.035 9.50716V14.4294C6.03481 14.5284 6.08237 14.6214 6.16272 14.6791C6.24307 14.7369 6.34635 14.7524 6.44009 14.7207L7.70512 14.294L9.05524 16.208C9.13237 16.3171 9.27118 16.3637 9.3985 16.3233C9.52581 16.2829 9.61237 16.1648 9.61255 16.0312V11.4409L13.1931 13.3759V25.5648L2.45445 19.7604L2.45446 7.57157ZM24.5454 7.57157V19.7604L13.8067 25.5648V13.3759L24.5454 7.57157ZM6.64864 9.83855C7.18176 10.1266 6.7318 9.88356 8.99891 11.109V15.064L8.07426 13.7535C7.99612 13.6424 7.85427 13.5958 7.7255 13.639L6.64864 14.0028V9.83855ZM3.37371 17.8584C3.23324 17.8586 3.11088 17.9542 3.07664 18.0905C3.0424 18.2267 3.10503 18.3688 3.22869 18.4354L7.2401 20.6035C7.3892 20.6843 7.57553 20.6289 7.65628 20.4798C7.73704 20.3307 7.68163 20.1444 7.53254 20.0636H7.53194L3.52113 17.8955C3.47588 17.871 3.42519 17.8582 3.37371 17.8584ZM3.37371 18.9047C3.23335 18.9052 3.11124 19.0009 3.07716 19.1371C3.04309 19.2732 3.10573 19.4152 3.22929 19.4817L4.68488 20.2686C4.78153 20.323 4.90007 20.3211 4.9949 20.2635C5.08973 20.2059 5.1461 20.1016 5.14233 19.9908C5.13856 19.8799 5.07524 19.7797 4.97672 19.7286L3.52113 18.9418C3.47588 18.9173 3.42519 18.9045 3.37371 18.9047Z" fill="#626262"/>
</svg>